<?xml version="1.0" encoding="utf-8"?>
<!-- Generator: Adobe Illustrator 22.0.1, SVG Export Plug-In . SVG Version: 6.00 Build 0)  -->
<svg class="mushie" version="1.1" id="Layer_1" xmlns="http://www.w3.org/2000/svg" xmlns:xlink="http://www.w3.org/1999/xlink" x="0px" y="0px"
	 viewBox="0 0 2000 2000" style="enable-background:new 0 0 2000 2000;" xml:space="preserve">
<defs>
  <style>
    .mushie {
			opacity: 1;
			position: relative;
    }
  </style>
</defs>
<g>
	<g>
		<path d="M1581.4,778.5c0,11,0,21.9,0,32.9c-0.3,1.2-0.6,2.4-0.8,3.6c-1.7,12.2-2.6,24.6-5,36.7c-6.1,30.1-19.2,56.5-43.5,76.2
			c-17.6,14.2-37.3,24-60.4,25.2c-15.9,0.8-31.9,1.2-47.8,2.1c-6.1,0.3-12.2,1-18.1,2.5c-26.4,6.9-52.8,14.2-79.2,21.3
			c-25.7,6.9-51.6,12.8-78.1,15.4c-29,2.9-58.1,2.6-87.2,1.2c-14.5-0.7-29.1-1.5-43.6-1.8c-9.8-0.2-11.6,1.8-13,11.4
			c-0.1,0.5-0.1,0.9-0.1,1.4c-0.9,13.1-2.2,26.2-2.6,39.3c-2.4,66.4,3.8,132.2,16.1,197.4c10.3,54.4,23.6,108.1,40.8,160.8
			c23.4,71.7,47.7,143.2,72.1,214.5c10.2,29.9,18.5,60,21,91.6c2.7,33.8-0.2,67.2-7.5,100.2c-5.1,22.7-17.9,38.1-40.9,44.9
			c-30.3,9-60.4,18.1-91.9,22.3c-37.8,5-75.6,10.4-113.4,15.5c-8,1.1-16.1,1.8-24.2,2.8c-7.5,0-15,0-22.5,0
			c-11.9-1.6-23.8-3-35.7-4.7c-13.4-1.9-27.2-2.9-40.2-6.3c-23.8-6.1-40.6-21.9-53.7-42.1c-15.3-23.5-29-47.9-40.8-73.3
			c-22.1-47.5-37.5-97-44.6-149c-4.1-29.7-7.7-59.6-10.4-89.5c-3.1-33.8-5.6-67.7-7.1-101.6c-1-23.6,0.5-47.2,0.1-70.9
			c-1-57.6-0.7-115.2,4.2-172.6c3.2-37.1,7.6-74.1,14.9-110.6c6.2-30.9,13.5-61.7,20.2-92.5c3.1-14.5,3-14.7-11.9-14.9
			c-46.1-0.6-91.2-7.2-135.4-20.6c-46.7-14.2-88.9-35.9-123.6-70.8c-14.5-14.7-29-29.4-43.7-43.8c-14.8-14.6-31.2-27.8-44.6-43.5
			c-31.8-37.1-40.7-79.9-26-126.7c9.5-30.3,22.8-59.2,37.3-87.4c37.8-73.4,89.5-135.9,149.9-191.5c63.1-58,130.5-110.6,200.6-159.8
			c49-34.4,100.1-65,155-89.2c43.3-19,88.1-33.3,135.4-37.6c41.1-3.8,82.4-5.1,123.8-3.4c40.2,1.7,77,13.9,110.4,36.2
			c40.7,27.2,73.8,62.3,102.7,101.3c33.1,44.5,57.6,93.7,76,145.9c34.8,98.4,66.4,197.8,95.8,298c7.3,24.7,15,49.4,18.3,75.1
			C1579.4,759.6,1580.3,769,1581.4,778.5z M784.4,1345.9c-0.4,0-0.7,0-1.1,0c0.9,42.7,1.2,85.4,2.7,128.1
			c2.2,62.5,9.9,124.3,23.5,185.4c6.8,30.7,14.3,61.2,27.3,90c3.7,8.2,7.9,16.3,12.3,24.2c10.8,19.3,28.3,29.4,49,35.8
			c42.7,13.2,86,17.4,130.3,12.1c32.1-3.9,63.1-12.6,93.1-24.5c22.5-8.9,37.6-24.8,41.6-49.1c1.8-11,1.7-22.5,0.9-33.6
			c-1.7-21.7-9-42.1-17.7-61.9c-34.6-78.8-58.7-160.7-75-245.1c-10.4-53.9-18.9-108.1-25.2-162.6c-5-42.9-8.6-86-9.1-129.2
			c-0.4-39,0.4-77.9,0.6-116.9c0.1-12.4,0.5-24.7,0.1-37.1c-0.4-13.4-6.1-19.6-19.2-22.1c-2.8-0.5-5.6-0.8-8.4-1.1
			c-25.5-2.7-51-5.3-76.5-8.1c-26.2-2.9-52.4-4.1-78.6,0.6c-18.3,3.2-25.7,9.4-28.5,24.3c-8.3,44.7-16.7,89.4-24.9,134.2
			c-8.8,48.6-13.2,97.6-14.6,146.9C785.9,1272.7,785.2,1309.3,784.4,1345.9z M672.5,519.4c-0.7-7.1-1.1-14-2-20.8
			c-3.2-23.4-12.7-43.6-30.8-59.4c-18.8-16.5-42-19.4-60.1-5.6c-17.1,13-34.5,26.3-49.3,41.8c-41.3,43.2-71.1,94.3-93.8,149.3
			c-14.6,35.3,4,70.7,40.2,80.3c9,2.4,18.5,3.7,27.8,4.2c63.8,2.9,112.2-23.6,143.7-78.8C667.7,596.1,671.4,557.8,672.5,519.4z
			 M1435.2,406c0.2-12.9-4.6-24.6-10.3-35.7c-15.4-30-31.1-59.9-47.3-89.5c-11.4-20.8-22.7-41.8-35.8-61.6
			c-14.8-22.3-35-35.8-63.7-31.4c-26.9,4.1-45.3,24.4-46.1,51.5c-0.5,17.6,1.6,35,4.8,52.2c10.9,57.9,38,105.8,87.2,139.8
			c14.8,10.2,30,19.9,48,23.7C1405.1,461.9,1435.1,438.7,1435.2,406z M1223.6,760.5c-0.9-8.5-3.8-15.6-9.3-21.6
			c-13.3-14.3-37.8-24.1-60.9-6.8c-29.9,22.4-51.8,51-63.4,86.8c-4.9,15.2-10,30.5-6.3,47.1c2.2,10.1,4.2,20.2,9.9,29.1
			c6,9.3,14.4,12.3,24.7,8.5c4.3-1.6,8.5-3.9,12.3-6.7c13-9.5,23.8-21.2,33.7-33.7c21.5-26.9,37.7-57.1,54.4-86.9
			C1221.3,771.6,1222,765.8,1223.6,760.5z M1193.4,951.1c12.8-0.4,24-5.3,34.5-12.2c37.3-24.4,65-57.5,84.7-97
			c4.9-9.8,8.3-21.3,9-32.2c0.9-14.1-4.6-27.3-14-38.3c-8.8-10.4-22.2-10.8-31.6-1c-3.1,3.2-5.8,7-8.3,10.7
			c-13.3,19.5-25.4,39.9-40,58.4c-18,22.8-38.1,43.9-57.2,65.8c-3.6,4.1-7,8.5-9.4,13.3c-4.9,9.6-2.3,18.4,6.6,24.5
			C1175.5,948.3,1184.1,950.6,1193.4,951.1z M1010.1,690.3c-6.8,0.1-14.3,3.1-20.6,9.1c-7.2,6.7-11.7,15.1-14.4,24.4
			c-6.5,22.5-12.9,45-18.9,67.7c-3.6,13.6-4.3,27.5-1.2,41.4c3.7,16.3,11.2,30.5,24.2,41.3c7.7,6.4,16,7,23.9,1.7
			c10.8-7.2,19.4-16.9,22.9-29.4c9.2-33.1,17.6-66.4,26.3-99.6c0.3-1.1,0.2-2.4-0.1-3.5c-0.6-2-1.8-3.9-2.1-5.9
			c-0.7-4.6-0.5-9.4-1.4-14C1045.2,703.2,1030.7,690.4,1010.1,690.3z M847.9,686.3c-14-0.1-23.3,7.1-28.8,19.4
			c-5.5,12.3-7.6,25.4-7.7,38.8c-0.1,28.4,7,55.4,19,81c3.9,8.4,10.2,16.2,16.7,22.9c10.7,10.8,23.8,17.8,39.4,18.3
			c3.7,0.1,9.1-1.1,10.9-3.7c4.7-6.7,7.9-14.4,11.6-21.8c0.4-0.8,0-2.2-0.3-3.2c-10.5-43.1-20.8-86.2-31.5-129.2
			C873.7,694.1,863.1,686.4,847.9,686.3z M815.6,869.7c-12.8-21.5-21.3-31.6-38.7-47.7c-23.8-22-45-46.1-60.6-74.7
			c-2-3.7-4.5-7.2-7.4-10.2c-8.3-8.6-18.3-12.4-30.2-9c-11.4,3.3-18.9,10.8-20.9,22.4c-1.2,7.1-1.2,14.8,0.3,21.8
			c5.2,25.1,17.7,46.6,34.9,65.3c20.4,22.3,44.9,37.3,75.7,39.9C784.8,879,800.3,875.9,815.6,869.7z M746,904.2c0-0.5,0.1-1,0.1-1.6
			c-6.1-5-12.1-10.1-18.3-15c-1-0.8-2.6-1-4-1.2c-55.8-8.7-107.1-29.1-153.8-60.9c-6.8-4.6-14.1-8.9-21.7-11.9
			c-5-2-10.9-1.8-16.4-1.7c-3.9,0-6.2,2.9-7.1,7c-1.6,7.7-0.8,14.9,2.8,21.8c7.6,14.6,18,27,30.2,38c25.2,22.6,55.5,34.4,88,41.4
			c6.8,1.5,14.1,3.3,20.7,2.3c19-2.9,37.8-6.8,56.6-10.9C730.8,909.8,738.3,906.7,746,904.2z M1514.1,684.7
			c0.1-28.5-19-48.2-47.2-48.4c-27.4-0.3-52.5,22.8-52.6,48.2c-0.1,24.9,24.8,48.1,51.7,48.2C1494.5,732.9,1514,713.4,1514.1,684.7z
			 M991.7,159.3c-21.3,0.5-42,22.2-41.6,43.6c0.5,22.5,20.7,41.8,43.2,41.2c22-0.6,41.3-20.7,41-42.6
			C1034,180.4,1012.2,158.8,991.7,159.3z M1258.1,948c7-1.1,13.9-2.4,20.9-3.3c37.9-4.5,67.6-22.8,90.1-53.2c1.8-2.5,3.4-6,3.3-8.9
			c-0.2-7.1-1.5-14.1-2.4-21.2c-4.3,0.9-8.1,1.4-11.7,2.4c-3.7,1.1-7.9,1.9-10.8,4.1c-29.6,23-59,46.3-88.5,69.4
			C1254.6,940.6,1254.4,943.7,1258.1,948z"/>
	</g>
</g>
</svg>
