<svg class="pipes" xmlns="http://www.w3.org/2000/svg" viewBox="0 0 183.25 108.48"><defs>
  <style>
    .cls-1{fill:#ae2724;}
    .pipes {
      left: 283px;
      top: 341px;
      height: 127px;
    }
  </style>
</defs><title>Pipes</title><g id="Layer_2" data-name="Layer 2"><g id="Layer_0_Brightness_Contrast_1_Hue_Saturation_1_Image" data-name="Layer 0 + Brightness/Contrast 1 + Hue/Saturation 1 Image"><polygon class="cls-1" points="0 50.58 0.25 43.77 3.42 33.35 45.55 34.35 49.09 52.38 60.51 52.38 62.51 32.35 68.22 32.35 69.39 9.44 90.96 0 101.01 2 103.55 8.61 115.33 8.61 120.78 19.66 120.78 34.89 123.48 59.36 132.19 60.36 142.34 54.38 154.39 56.17 167.08 68.51 167.08 77.39 183.25 82.47 183.25 103.4 135.37 108.48 127.41 104.23 124.78 95.98 65.59 72.32 62.41 54.09 47.82 54.09 50.36 72.95 31.33 72.32 12.93 60.9 3.71 57.09 0 50.58"/></g></g></svg>